<svg xmlns="http://www.w3.org/2000/svg" viewBox="0 0 1200 720" role="img" aria-labelledby="title desc">
  <title id="title">ROC performance and operating thresholds</title>
  <desc id="desc">A synthetic receiver operating characteristic curve with area 0.83. A false-positive rate of 0.10 has sensitivity 0.62, while a false-positive rate of 0.40 has sensitivity 0.83.</desc>
  <rect width="1200" height="720" rx="28" fill="#f8fafc"/>
  <style>
    text { font-family: "Source Sans 3", "Segoe UI", Arial, sans-serif; fill: #1e1b4b; }
    .title { font-size: 34px; font-weight: 700; }
    .subtitle { font-size: 21px; fill: #475569; }
    .label { font-size: 20px; font-weight: 650; }
    .small { font-size: 17px; fill: #475569; }
    .value { font-size: 24px; font-weight: 700; }
  </style>
  <text x="70" y="58" class="title">ROC performance and operating thresholds</text>
  <text x="70" y="91" class="subtitle">Synthetic ROC curve with AUROC = 0.83; each threshold chooses a different error trade-off.</text>
  <path d="M 130.0 135.0 V 590.0" stroke="#cbd5e1" stroke-width="1"/>
  <path d="M 130.0 590.0 H 1060.0" stroke="#cbd5e1" stroke-width="1"/>
  <path d="M 316.0 135.0 V 590.0" stroke="#cbd5e1" stroke-width="1"/>
  <path d="M 130.0 499.0 H 1060.0" stroke="#cbd5e1" stroke-width="1"/>
  <path d="M 502.0 135.0 V 590.0" stroke="#cbd5e1" stroke-width="1"/>
  <path d="M 130.0 408.0 H 1060.0" stroke="#cbd5e1" stroke-width="1"/>
  <path d="M 688.0 135.0 V 590.0" stroke="#cbd5e1" stroke-width="1"/>
  <path d="M 130.0 317.0 H 1060.0" stroke="#cbd5e1" stroke-width="1"/>
  <path d="M 874.0 135.0 V 590.0" stroke="#cbd5e1" stroke-width="1"/>
  <path d="M 130.0 226.0 H 1060.0" stroke="#cbd5e1" stroke-width="1"/>
  <path d="M 1060.0 135.0 V 590.0" stroke="#cbd5e1" stroke-width="1"/>
  <path d="M 130.0 135.0 H 1060.0" stroke="#cbd5e1" stroke-width="1"/>
  <path d="M 130.0 590.0 L 1060.0 135.0" stroke="#475569" stroke-width="3" stroke-dasharray="10 10"/>
  <path d="M 130.00 590.00 L 139.30 412.84 L 148.60 385.81 L 157.90 368.13 L 167.20 354.67 L 176.50 343.66 L 185.80 334.29 L 195.10 326.08 L 204.40 318.77 L 213.70 312.14 L 223.00 306.08 L 232.30 300.49 L 241.60 295.28 L 250.90 290.41 L 260.20 285.83 L 269.50 281.50 L 278.80 277.39 L 288.10 273.49 L 297.40 269.76 L 306.70 266.19 L 316.00 262.77 L 325.30 259.49 L 334.60 256.32 L 343.90 253.27 L 353.20 250.32 L 362.50 247.47 L 371.80 244.71 L 381.10 242.03 L 390.40 239.43 L 399.70 236.90 L 409.00 234.44 L 418.30 232.04 L 427.60 229.71 L 436.90 227.43 L 446.20 225.20 L 455.50 223.03 L 464.80 220.91 L 474.10 218.83 L 483.40 216.80 L 492.70 214.81 L 502.00 212.86 L 511.30 210.95 L 520.60 209.07 L 529.90 207.23 L 539.20 205.42 L 548.50 203.65 L 557.80 201.91 L 567.10 200.19 L 576.40 198.51 L 585.70 196.85 L 595.00 195.22 L 604.30 193.62 L 613.60 192.04 L 622.90 190.48 L 632.20 188.95 L 641.50 187.44 L 650.80 185.95 L 660.10 184.48 L 669.40 183.04 L 678.70 181.61 L 688.00 180.20 L 697.30 178.81 L 706.60 177.44 L 715.90 176.08 L 725.20 174.75 L 734.50 173.43 L 743.80 172.12 L 753.10 170.83 L 762.40 169.56 L 771.70 168.30 L 781.00 167.05 L 790.30 165.82 L 799.60 164.61 L 808.90 163.40 L 818.20 162.21 L 827.50 161.04 L 836.80 159.87 L 846.10 158.72 L 855.40 157.58 L 864.70 156.45 L 874.00 155.33 L 883.30 154.22 L 892.60 153.12 L 901.90 152.04 L 911.20 150.96 L 920.50 149.90 L 929.80 148.84 L 939.10 147.79 L 948.40 146.76 L 957.70 145.73 L 967.00 144.71 L 976.30 143.70 L 985.60 142.70 L 994.90 141.71 L 1004.20 140.73 L 1013.50 139.76 L 1022.80 138.79 L 1032.10 137.83 L 1041.40 136.88 L 1050.70 135.94 L 1060.00 135.00" fill="none" stroke="#4f46e5" stroke-width="8" stroke-linecap="round" stroke-linejoin="round"/>
  <circle cx="223.0" cy="306.1" r="10" fill="#ffffff" stroke="#3730a3" stroke-width="6"/>
  <path d="M 233.0 314.1 L 360 365" fill="none" stroke="#3730a3" stroke-width="2"/>
  <rect x="348" y="350" width="330" height="70" rx="12" fill="#ffffff" stroke="#cbd5e1"/>
  <text x="368" y="378" class="label">More specific threshold</text>
  <text x="368" y="404" class="small">FPR 0.10 · sensitivity 0.62</text>
  <circle cx="502.0" cy="212.9" r="10" fill="#ffffff" stroke="#a16207" stroke-width="6"/>
  <path d="M 512.0 206.9 L 665 165" fill="none" stroke="#a16207" stroke-width="2"/>
  <rect x="653" y="130" width="350" height="70" rx="12" fill="#ffffff" stroke="#cbd5e1"/>
  <text x="673" y="158" class="label">More sensitive threshold</text>
  <text x="673" y="184" class="small">FPR 0.40 · sensitivity 0.83</text>
  <text x="130.0" y="621.0" text-anchor="middle" class="small">0.0</text>
  <text x="108.0" y="596.0" text-anchor="end" class="small">0.0</text>
  <text x="316.0" y="621.0" text-anchor="middle" class="small">0.2</text>
  <text x="108.0" y="505.0" text-anchor="end" class="small">0.2</text>
  <text x="502.0" y="621.0" text-anchor="middle" class="small">0.4</text>
  <text x="108.0" y="414.0" text-anchor="end" class="small">0.4</text>
  <text x="688.0" y="621.0" text-anchor="middle" class="small">0.6</text>
  <text x="108.0" y="323.0" text-anchor="end" class="small">0.6</text>
  <text x="874.0" y="621.0" text-anchor="middle" class="small">0.8</text>
  <text x="108.0" y="232.0" text-anchor="end" class="small">0.8</text>
  <text x="1060.0" y="621.0" text-anchor="middle" class="small">1.0</text>
  <text x="108.0" y="141.0" text-anchor="end" class="small">1.0</text>
  <text x="595.0" y="665" text-anchor="middle" class="label">False-positive rate (1 − specificity)</text>
  <text x="39" y="362.5" text-anchor="middle" class="label" transform="rotate(-90 39 362.5)">True-positive rate (sensitivity)</text>
  <text x="1040" y="560" text-anchor="end" class="small">Chance line</text>
</svg>
